#!OML:ASF H:\Male1\Project 1\Capture day 1\Session 1\Male1.ASF
:FULLY-SPECIFIED
:DEGREES
408
root 21.8641 15.5079 0.23826 184.157 -71.2475 -182.752
lowerback 9.64378 0.889862 -2.04831
upperback 7.48394 0.620739 0.817746
thorax 2.34228 0.0369907 1.94281
lowerneck -10.6121 2.14378 7.02962
upperneck 4.22993 2.549 -9.92976
head 3.21189 0.927023 -4.03321
rclavicle -2.5842e-014 -3.57812e-015
rhumerus -18.289 51.3761 -94.9661
rradius 132.242
rwrist -4.53647
rhand -17.707 25.6407
rfingers 7.12502
rthumb 8.55313 -4.16602
lclavicle -2.5842e-014 -3.57812e-015
lhumerus 30.1476 15.4072 17.889
lradius 90.3504
lwrist 4.17052
lhand -0.669047 -13.6127
lfingers 7.12502
lthumb 24.9494 14.7786
rfemur -12.7428 15.0269 18.1699
rtibia 27.1916
rfoot -18.2662 -23.7115
rtoes -31.9481
lfemur -1.20006 -8.16252 -17.0025
ltibia 19.6559
lfoot -25.8736 30.088
ltoes 3.55777
409
root 21.9044 15.5151 0.225619 185.193 -72.5517 -183.847
lowerback 9.66932 0.521009 -2.61639
upperback 7.60201 0.0823254 1.10054
thorax 2.4822 -0.268817 2.59602
lowerneck -10.5309 2.14599 6.92868
upperneck 4.16227 2.58595 -10.3288
head 3.18784 0.925383 -4.13866
rclavicle -3.47873e-015 -5.1684e-015
rhumerus -17.0368 51.5749 -93.6889
rradius 132.435
rwrist -4.75889
rhand -17.116 25.469
rfingers 7.12502
rthumb 9.12345 -4.31363
lclavicle -3.47873e-015 -5.1684e-015
lhumerus 39.6515 15.6006 20.124
lradius 77.6215
lwrist 0.248351
lhand -2.10679 -14.4247
lfingers 7.12502
lthumb 23.571 14.1507
rfemur -12.5983 14.3308 18.0085
rtibia 27.1659
rfoot -19.1695 -24.1438
rtoes -29.925
lfemur -1.64422 -8.83441 -17.0621
ltibia 19.6591
lfoot -25.0939 29.5786
ltoes 3.53724
410
root 21.9404 15.5203 0.217233 185.7 -73.7638 -184.477
lowerback 9.64847 0.146612 -3.04012
upperback 7.77354 -0.458291 1.41676
thorax 2.72097 -0.577434 3.20209
lowerneck -10.6024 2.23799 6.63541
upperneck 4.31891 2.75848 -10.3732
head 3.25898 0.997984 -4.09334
rclavicle -9.54166e-015 -1.11319e-014
rhumerus -15.7013 51.7621 -92.4953
rradius 132.439
rwrist -5.15715
rhand -16.4459 25.4674
rfingers 7.12502
rthumb 9.76996 -4.28601
lclavicle -9.54166e-015 -1.11319e-014
lhumerus 48.3392 15.1526 21.8366
lradius 63.9522
lwrist -0.771093
lhand -4.03989 -14.7793
lfingers 7.12502
lthumb 21.7156 14.0227
rfemur -12.4278 13.6881 18.0441
rtibia 27.2106
rfoot -19.7857 -24.7248
rtoes -28.3868
lfemur -2.03826 -9.39464 -16.9841
ltibia 19.8337
lfoot -24.1673 29.2113
ltoes 2.38754
411
root 21.9764 15.5215 0.214051 185.597 -74.8018 -184.507
lowerback 9.69625 -0.195359 -3.28565
upperback 7.8619 -0.941887 1.70546
thorax 2.84019 -0.845712 3.67561
lowerneck -10.5219 2.25002 6.45573
upperneck 4.57753 2.81523 -10.2464
head 3.32342 1.02786 -4.02143
rclavicle 9.93923e-015 1.55052e-014
rhumerus -14.685 52.1291 -91.8165
rradius 132.149
rwrist -5.0443
rhand -16.5801 25.2001
rfingers 7.12502
rthumb 9.64054 -4.55927
lclavicle 9.93923e-015 1.55052e-014
lhumerus 57.3154 14.3708 25.8129
lradius 49.4973
lwrist -2.23793
lhand -8.24289 -14.8467
lfingers 7.12502
lthumb 17.6751 14.3699
rfemur -12.285 13.1715 18.2376
rtibia 27.2947
rfoot -20.0881 -25.2525
rtoes -27.4994
lfemur -2.45943 -9.81054 -16.7478
ltibia 20.1372
lfoot -23.2454 28.8655
ltoes 1.09873
412
root 22.0148 15.5191 0.216627 185.814 -75.8615 -184.669
lowerback 9.76051 -0.654076 -3.56207
upperback 7.84356 -1.57588 1.97736
thorax 2.86358 -1.18398 4.16106
lowerneck -10.5551 2.31371 6.51846
upperneck 4.81182 2.91581 -10.3443
head 3.41054 1.07002 -4.05655
rclavicle -1.98785e-014 6.36111e-015
rhumerus -13.6776 52.694 -91.3751
rradius 131.732
rwrist -4.99869
rhand -16.6952 25.0343
rfingers 7.12502
rthumb 9.52947 -4.73021
lclavicle -1.98785e-014 6.36111e-015
lhumerus 65.8634 13.686 32.1595
lradius 34.9742
lwrist -5.63396
lhand -12.0205 -13.7332
lfingers 7.12502
lthumb 14.0373 15.7728
rfemur -12.344 12.4722 18.3092
rtibia 27.4163
rfoot -20.4632 -25.4295
rtoes -26.8966
lfemur -3.17252 -10.0977 -16.5095
ltibia 20.5013
lfoot -22.1837 28.4577
ltoes -0.774562
413
root 22.042 15.5127 0.227224 185.843 -76.5617 -184.756
lowerback 9.82304 -1.2266 -3.1245
upperback 8.00391 -2.31705 1.71861
thorax 3.04068 -1.5408 3.6898
lowerneck -10.8166 2.60409 7.05567
upperneck 4.84893 3.23202 -10.4036
head 3.50128 1.22879 -4.14211
rclavicle 1.53064e-014 4.37326e-015
rhumerus -12.236 53.0185 -91.499
rradius 131.199
rwrist -5.36381
rhand -15.9845 25.4129
rfingers 7.12502
rthumb 10.2151 -4.31905
lclavicle 1.53064e-014 4.37326e-015
lhumerus 74.4563 13.6655 43.6383
lradius 22.1627
lwrist -15.8571
lhand -10.5146 -12.0985
lfingers 7.12502
lthumb 15.4881 17.3011
rfemur -12.384 11.8277 18.3484
rtibia 27.6067
rfoot -20.5809 -25.4628
rtoes -26.9426
lfemur -3.63857 -10.2562 -16.3848
ltibia 20.8761
lfoot -21.522 28.1604
ltoes -2.42452
414
root 22.0613 15.5053 0.239971 185.943 -76.6587 -184.927
lowerback 10.0047 -1.5823 -3.84197
upperback 8.11545 -2.877 2.27615
thorax 3.18848 -1.88749 4.7189
lowerneck -10.8147 2.99865 6.99062
upperneck 4.46295 3.79182 -11.2349
head 3.45556 1.46275 -4.35249
rclavicle 8.46823e-014 -3.89618e-014
rhumerus -10.527 53.9928 -90.2182
rradius 130.648
rwrist -5.70233
rhand -15.1437 25.7027
rfingers 7.12502
rthumb 11.0261 -3.98769
lclavicle 8.46823e-014 -3.89618e-014
lhumerus 78.6325 14.2336 59.179
lradius 17.8921
lwrist -35.0154
lhand -2.81245 -10.6215
lfingers 7.12502
lthumb 22.8939 18.0394
rfemur -12.5667 11.5168 18.304
rtibia 27.8651
rfoot -20.5908 -25.3665
rtoes -26.6146
lfemur -3.87386 -10.1723 -16.3982
ltibia 21.1817
lfoot -21.2099 28.0338
ltoes -3.35213
415
root 22.0772 15.4961 0.25466 185.998 -76.1286 -185.002
lowerback 10.689 -1.77139 -4.42483
upperback 7.91262 -3.21005 2.84138
thorax 2.7169 -2.0867 5.70733
lowerneck -10.7274 3.42983 6.89798
upperneck 4.14209 4.42868 -12.4544
head 3.43952 1.7153 -4.67541
rclavicle -1.13307e-014 5.56597e-015
rhumerus -9.57034 55.0911 -89.5543
rradius 129.887
rwrist -5.61105
rhand -14.616 25.4148
rfingers 7.12502
rthumb 11.5351 -4.24781
lclavicle -1.13307e-014 5.56597e-015
lhumerus 76.7365 13.3344 59.3299
lradius 17.3
lwrist -43.1929
lhand 1.09338 -12.5233
lfingers 7.12502
lthumb 26.6372 15.6228
rfemur -12.8966 11.5056 18.2173
rtibia 28.1626
rfoot -20.5802 -25.0238
rtoes -26.1837
lfemur -3.91649 -9.75503 -16.4739
ltibia 21.3319
lfoot -20.9504 28.1133
ltoes -4.41178
416
root 22.0868 15.4897 0.276428 185.977 -75.1837 -184.993
lowerback 11.1814 -1.86872 -4.75388
upperback 7.79688 -3.40658 3.39086
thorax 2.41814 -2.21319 6.5243
lowerneck -10.519 3.9328 6.55525
upperneck 3.62711 5.17378 -13.8264
head 3.36572 2.01665 -4.99779
rclavicle 4.31363e-014 -1.74931e-014
rhumerus -8.70181 56.2889 -88.9906
rradius 129.064
rwrist -5.52922
rhand -14.6751 24.9991
rfingers 7.12502
rthumb 11.4781 -4.66666
lclavicle 4.31363e-014 -1.74931e-014
lhumerus 71.9876 10.4105 49.7596
lradius 18.5574
lwrist -39.6178
lhand -1.82225 -15.5739
lfingers 7.12502
lthumb 23.8439 12.9662
rfemur -13.3002 11.5753 18.0882
rtibia 28.4921
rfoot -20.1807 -24.6563
rtoes -27.1618
lfemur -3.77746 -9.17015 -16.625
ltibia 21.3728
lfoot -20.8685 28.2829
ltoes -5.07422
